<svg width="104" height="19" viewBox="0 0 104 19" fill="none" xmlns="http://www.w3.org/2000/svg">
<path d="M12.4934 15.1155C11.892 16.1035 11.072 16.8955 10.0335 17.4875C8.99508 18.0815 7.88377 18.3766 6.69775 18.3766C5.49492 18.3766 4.37801 18.0759 3.34888 17.4745C2.31975 16.873 1.50728 16.0531 0.915201 15.0146C0.306315 14.0098 0 12.8985 0 11.6788C0 10.476 0.300711 9.3591 0.902126 8.32997C1.50354 7.30084 2.32348 6.48089 3.36195 5.87014C4.38361 5.27619 5.49492 4.98109 6.69775 4.98109C8.11537 4.98109 9.41719 5.40134 10.6032 6.24182V0.251953H13.3712L13.3955 11.8768C13.3955 13.0479 13.0948 14.1275 12.4934 15.1155ZM8.65141 8.29448C8.05747 7.94895 7.4075 7.77524 6.69962 7.77524C6.00668 7.77524 5.36044 7.95268 4.75903 8.30568C4.15761 8.65869 3.68321 9.1331 3.33767 9.72704C2.97533 10.3042 2.79416 10.9542 2.79416 11.6788C2.79416 12.3718 2.97159 13.018 3.3246 13.6194C3.6776 14.2208 4.15201 14.6953 4.74595 15.0408C5.32308 15.4031 5.97306 15.5843 6.69775 15.5843C7.39069 15.5843 8.03692 15.4069 8.63834 15.0539C9.23975 14.7009 9.72164 14.2264 10.084 13.6325C10.4295 13.0386 10.6032 12.3886 10.6032 11.6807C10.6032 10.9878 10.4258 10.3415 10.0728 9.74011C9.71977 9.1387 9.24349 8.65682 8.65141 8.29448Z" fill="#000036"/>
<path d="M20.8347 18.3542C19.6319 18.3542 18.515 18.0535 17.4859 17.452C16.4567 16.8506 15.6443 16.0307 15.0522 14.9922C14.4433 13.9874 14.137 12.8742 14.137 11.6564C14.137 10.4536 14.4377 9.33668 15.0391 8.30755C15.6405 7.27842 16.4605 6.45848 17.4989 5.84773C18.5206 5.25378 19.6319 4.95868 20.8347 4.95868C22.0208 4.95868 23.1283 5.25191 24.1593 5.83652C25.1903 6.42113 26.0084 7.20745 26.6192 8.19736C27.228 9.20221 27.5344 10.2892 27.5344 11.4603L27.5101 18.3803H24.7421V17.0953C23.5542 17.9339 22.2524 18.3542 20.8347 18.3542ZM22.7884 8.2702C22.1945 7.92466 21.5445 7.75096 20.8366 7.75096C20.1437 7.75096 19.4974 7.9284 18.896 8.2814C18.2946 8.63441 17.8202 9.10882 17.4747 9.70276C17.1123 10.2799 16.9311 10.9299 16.9311 11.6546C16.9311 12.3475 17.1086 12.9937 17.4616 13.5951C17.8146 14.1966 18.289 14.671 18.8829 15.0165C19.4601 15.3788 20.1101 15.56 20.8347 15.56C21.5277 15.56 22.1739 15.3826 22.7753 15.0277C23.3768 14.6728 23.8586 14.2003 24.221 13.6064C24.5665 13.0124 24.7402 12.3624 24.7402 11.6546C24.7402 10.9616 24.5628 10.3154 24.2098 9.71397C23.8568 9.11255 23.3805 8.63254 22.7884 8.2702Z" fill="#000036"/>
<path d="M32.0076 0.253823V4.31618H34.9736V7.18317H32.0076V18.3803H28.7708V0.253823H32.0076Z" fill="#000036"/>
<path d="M40.9298 18.3542C39.727 18.3542 38.6101 18.0535 37.581 17.452C36.5518 16.8506 35.7394 16.0307 35.1473 14.9922C34.5384 13.9874 34.2321 12.8742 34.2321 11.6564C34.2321 10.4536 34.5328 9.33668 35.1342 8.30755C35.7356 7.27842 36.5556 6.45848 37.594 5.84773C38.6157 5.25378 39.727 4.95868 40.9298 4.95868C42.1159 4.95868 43.2234 5.25191 44.2544 5.83652C45.2854 6.42113 46.1035 7.20745 46.7143 8.19736C47.3232 9.20221 47.6295 10.2892 47.6295 11.4603L47.6052 18.3803H44.8372V17.0953C43.6474 17.9339 42.3456 18.3542 40.9298 18.3542ZM42.8816 8.2702C42.2877 7.92466 41.6377 7.75096 40.9298 7.75096C40.2369 7.75096 39.5907 7.9284 38.9893 8.2814C38.3878 8.63441 37.9134 9.10882 37.5679 9.70276C37.2056 10.2799 37.0244 10.9299 37.0244 11.6546C37.0244 12.3475 37.2018 12.9937 37.5548 13.5951C37.9078 14.1966 38.3822 14.671 38.9762 15.0165C39.5533 15.3788 40.2033 15.56 40.928 15.56C41.6209 15.56 42.2672 15.3826 42.8686 15.0277C43.47 14.6728 43.9519 14.2003 44.3142 13.6064C44.6597 13.0124 44.8334 12.3624 44.8334 11.6546C44.8334 10.9616 44.656 10.3154 44.303 9.71397C43.95 9.11255 43.4756 8.63254 42.8816 8.2702Z" fill="#000036"/>
<path d="M51.7292 5.87388C52.7508 5.27993 53.8621 4.98483 55.065 4.98483C56.1034 4.98483 57.084 5.21456 58.0067 5.67776C58.9293 6.13909 59.7119 6.77413 60.3544 7.581C60.9801 8.40467 61.4004 9.31053 61.6152 10.3004L58.6977 10.2762C58.4176 9.53467 57.9488 8.93325 57.2895 8.47192C56.6301 8.01058 55.8887 7.77898 55.065 7.77898C54.372 7.77898 53.7258 7.95641 53.1244 8.30942C52.523 8.66242 52.0486 9.13683 51.703 9.73078C51.3407 10.3079 51.1595 10.9579 51.1595 11.6826C51.1595 12.3755 51.3369 13.0217 51.69 13.6232C52.043 14.2246 52.5174 14.699 53.1113 15.0445C53.6884 15.4069 54.3384 15.588 55.0631 15.588C55.8868 15.588 56.632 15.3527 57.3007 14.8839C57.9675 14.4151 58.4419 13.8081 58.722 13.0666H61.6133C61.3985 14.0714 60.9783 14.9773 60.3526 15.786C59.7269 16.5948 58.9518 17.2279 58.0291 17.6893C57.1232 18.1506 56.1352 18.3822 55.0631 18.3822C53.8603 18.3822 52.7434 18.0815 51.7142 17.4801C50.6851 16.8787 49.8726 16.0587 49.2806 15.0202C48.6717 14.0154 48.3654 12.9041 48.3654 11.6844C48.3654 10.4816 48.6661 9.3647 49.2675 8.33557C49.8689 7.30644 50.6926 6.48276 51.7292 5.87388Z" fill="#000036"/>
<path d="M69.0806 4.98296C70.02 4.98296 70.9913 5.20896 71.998 5.66282C73.0028 6.11668 73.8601 6.86192 74.568 7.89852C75.3431 9.06773 75.7297 10.3285 75.7297 11.6807C75.7297 12.0431 75.7055 12.3979 75.655 12.7435L75.6046 12.7192V12.7435L65.3731 13.0161C65.5711 13.5597 65.868 14.0341 66.2621 14.4375C66.6562 14.8409 67.1194 15.1416 67.6461 15.3396C68.0738 15.504 68.5352 15.5862 69.0301 15.5862C69.5905 15.5862 70.1302 15.4741 70.6495 15.2518C71.1687 15.0296 71.6095 14.7121 71.9718 14.3012L74.6651 15.3396C74.0562 16.2791 73.2475 17.0206 72.2427 17.5641C71.2378 18.1076 70.1657 18.3803 69.0301 18.3803C68.0738 18.3803 67.0989 18.1543 66.1015 17.7005C65.1041 17.2466 64.2524 16.4939 63.5427 15.4386C62.7526 14.2694 62.3567 13.0087 62.3567 11.6564C62.3567 10.8664 62.5042 10.0744 62.8012 9.28438C63.2961 7.99937 64.1198 6.96091 65.2722 6.17085C66.4284 5.37892 67.6966 4.98296 69.0806 4.98296ZM72.689 10.2724C72.5079 9.76253 72.224 9.3124 71.8355 8.92578C71.447 8.53915 70.9913 8.24592 70.4646 8.04793C70.0368 7.88357 69.5755 7.8014 69.0806 7.8014C68.2737 7.8014 67.5322 8.02365 66.8561 8.46818C66.18 8.9127 65.6943 9.52346 65.3974 10.2967L65.3488 10.4443L72.689 10.2724Z" fill="#000036"/>
<path d="M79.2635 0.253823V6.18205C80.4159 5.32476 81.7178 4.89704 83.169 4.89704C84.355 4.89704 85.4682 5.19775 86.5048 5.79917C87.5433 6.40058 88.3669 7.21119 88.9758 8.23285C89.5698 9.27131 89.8649 10.392 89.8649 11.5948C89.8649 12.7976 89.5642 13.9145 88.9627 14.9437C88.3613 15.9728 87.5507 16.7853 86.5291 17.3773C85.5074 17.9862 84.3868 18.2925 83.1671 18.2925C81.9811 18.2925 80.8735 17.9993 79.8425 17.4147C78.8115 16.8301 77.9935 16.0344 77.3827 15.0296C76.7738 14.0584 76.4675 12.9788 76.4675 11.7928L76.4918 0.255687H79.2635V0.253823ZM81.3143 14.8055C81.8914 15.1342 82.5097 15.3004 83.1671 15.3004C83.8432 15.3004 84.4652 15.136 85.033 14.8055C85.6008 14.4767 86.0584 14.0229 86.4039 13.4457C86.7327 12.8686 86.8989 12.2504 86.8989 11.5929C86.8989 10.9168 86.7345 10.2948 86.4039 9.72704C86.0752 9.15925 85.6213 8.70164 85.0442 8.35611C84.4671 8.02739 83.8414 7.86116 83.1652 7.86116C82.4891 7.86116 81.8672 8.02552 81.2994 8.35611C80.7316 8.68484 80.2815 9.1387 79.9527 9.71584C79.624 10.293 79.4578 10.9187 79.4578 11.5948C79.4578 12.2709 79.6221 12.8929 79.9527 13.4607C80.2852 14.0285 80.7372 14.4767 81.3143 14.8055Z" fill="#000036"/>
<path d="M91.5216 15.0165C90.9127 14.0117 90.6064 12.9003 90.6064 11.6807C90.6064 10.4779 90.9071 9.36096 91.5085 8.33184C92.1099 7.30271 92.9298 6.48276 93.9683 5.87201C94.99 5.27806 96.1013 4.98296 97.3041 4.98296C98.4901 4.98296 99.6033 5.28367 100.64 5.88508C101.678 6.4865 102.502 7.2971 103.111 8.31876C103.705 9.35723 104 10.4779 104 11.6807C104 12.8835 103.699 14.0005 103.098 15.0296C102.496 16.0587 101.686 16.8712 100.664 17.4633C99.6425 18.0721 98.5219 18.3785 97.3022 18.3785C96.0994 18.3785 94.9825 18.0777 93.9534 17.4763C92.9242 16.8749 92.1155 16.055 91.5216 15.0165ZM100.519 13.5354C100.847 12.9582 101.013 12.34 101.013 11.6826C101.013 11.0065 100.853 10.3845 100.532 9.81669C100.21 9.2489 99.7621 8.79877 99.1849 8.47005C98.6078 8.14132 97.9821 7.97509 97.306 7.97509C96.6298 7.97509 96.0079 8.13572 95.4401 8.45697C94.8723 8.77822 94.4222 9.22648 94.0935 9.80362C93.7647 10.3808 93.5985 11.0065 93.5985 11.6826C93.5985 12.3587 93.7629 12.9807 94.0935 13.5485C94.4222 14.1163 94.876 14.5664 95.4532 14.8951C96.0303 15.2238 96.6485 15.3901 97.306 15.3901C97.9821 15.3901 98.6041 15.2257 99.1719 14.8951C99.7396 14.5645 100.19 14.1106 100.519 13.5354Z" fill="#000036"/>
</svg>
